<?xml version="1.0" encoding="UTF-8"?>
<svg id="Layer_2" data-name="Layer 2" xmlns="http://www.w3.org/2000/svg" viewBox="0 0 473.46 202.07">
  <defs>
    <style>
      .cls-1 {
        fill: #7d7c7c;
      }

      .cls-1, .cls-2 {
        stroke-width: 0px;
      }

      .cls-2 {
        fill: #3f5e5a;
      }
    </style>
  </defs>
  <g id="Layer_1-2" data-name="Layer 1">
    <path class="cls-1" d="m447.34,26.34c1.3-.05,2.6,0,3.91,0,0-2.71,0-5.42,0-8.13,0-11.22-6.95-18.19-18.14-18.21-14.06-.02-28.12-.02-42.18.01-1.73,0-3.5.07-5.17.46-7.98,1.88-12.98,8.52-12.99,17.23,0,2.86,0,5.71,0,8.57.15,0,.29,0,.44,0,1.14,0,2.29.02,3.43.02v-.02h70.71v.04Zm-22.47-13.21c-.16.71-1.43,1.64-2.24,1.68-3.62.18-7.24.08-10.87.08s-6.94.11-10.4-.08c-.81-.04-2.08-.96-2.24-1.68-.32-1.45.87-1.99,2.24-1.99,7.09,0,14.18,0,21.27,0,1.37,0,2.55.54,2.23,1.99Z"/>
    <path class="cls-1" d="m447.18,149.77h0s-70.31,0-70.31,0h0s-3.85,0-3.85,0c0,2.66,0,5.33,0,7.99,0,11.14,6.91,18.09,18.03,18.11,13.98.02,27.96.02,41.94,0,11.12-.02,18.06-6.96,18.06-18.08,0-2.67,0-5.34,0-8.01h-3.88Zm-35.21,18.71c-2.99-.05-5.52-2.61-5.51-5.58.01-2.97,2.56-5.53,5.54-5.54,2.98-.02,5.55,2.47,5.62,5.46.08,3.03-2.6,5.72-5.65,5.66Z"/>
    <path class="cls-2" d="m81.87,149.82h-20.63L23.69,77.84v71.98H.03V26.32h20.63l37.55,71.98V26.32h23.66v123.5Z"/>
    <path class="cls-2" d="m113.85,149.82h-22.28V60.37h22.28v89.45Z"/>
    <path class="cls-2" d="m113.85,49.48h-22.28v-23.18h22.28v23.18Z"/>
    <path class="cls-2" d="m205.88,149.82h-27.51l-30.54-56.46v56.46h-23.52V26.32h23.52v54.87l29.44-54.87h26.27l-33.29,59.81,35.63,63.69Z"/>
    <path class="cls-2" d="m251.38,149.82h-23.62V44.23h-22.66v-17.94h68.94v17.94h-22.66v105.59Z"/>
    <path class="cls-2" d="m344.75,149.82h-65.38V26.32h65.67v28.58h-42.15v19.05h31.36v26.99h-31.36v20.47h41.85v28.41Z"/>
    <path class="cls-2" d="m373.09,149.82h-22.42V26.32h22.42v123.5Z"/>
    <path class="cls-2" d="m473.46,149.82h-22.42V26.32h22.42v123.5Z"/>
    <g>
      <path class="cls-1" d="m283.8,195.68c-1.63,0-2.95,1.32-2.95,2.95s1.32,2.95,2.95,2.95,2.95-1.32,2.95-2.95-1.32-2.95-2.95-2.95Z"/>
      <circle class="cls-1" cx="261" cy="198.63" r="2.95"/>
      <circle class="cls-1" cx="252.66" cy="198.63" r="2.95"/>
      <circle class="cls-1" cx="160.69" cy="198.63" r="2.95"/>
      <circle class="cls-1" cx="173.45" cy="161.31" r="2.95"/>
      <circle class="cls-1" cx="152.35" cy="198.63" r="2.95"/>
      <circle class="cls-1" cx="97.08" cy="162.1" r="2.95"/>
      <circle class="cls-1" cx="88.73" cy="162.1" r="2.95"/>
      <path class="cls-1" d="m173.97,169.78h-1.35c-1.1,0-2,.9-2,2v13.43h-11.65v-13.43c0-1.1-.9-2-2-2h-1.35c-1.1,0-2,.9-2,2v13.43h-12.24v-5.79c0-2.85-2.24-5.16-5.05-5.32v-.03h-26.69c.13-.28.26-.55.42-.81,3.2-6.6,9.09-6.58,15.24-5.9v-5.27c-14.2-1.67-22.88,6.57-21,17.31h.4v.03h31.32v5.79h-41.24v-13.39c0-1.1-.9-2-2-2h-1.35c-1.1,0-2,.9-2,2v13.39h-11.3v-21.84c0-1.1-.9-2-2-2h-1.35c-1.1,0-2,.9-2,2v21.84H2c-1.1,0-2,.9-2,2v1.35c0,1.1.9,2,2,2h168.77v-.04c2.88-.09,5.2-2.44,5.2-5.34v-13.41c0-1.1-.9-2-2-2Z"/>
      <path class="cls-1" d="m263.49,169.81h-1.35c-1.1,0-2,.9-2,2v13.4h-18.09v-21.84c0-1.1-.9-2-2-2h-1.35c-1.1,0-2,.9-2,2v21.84h-42.74c-1.1,0-2,.9-2,2v1.35c0,1.1.9,2,2,2h66.18s.06,0,.1,0h.19v-.02c2.82-.15,5.07-2.47,5.07-5.33v-13.41c0-1.1-.9-2-2-2Z"/>
      <path class="cls-1" d="m287.59,169.79h-1.35c-1.1,0-2,.9-2,2v13.41h-8.72s0,0-.01,0v-21.2c0-1.1-.9-2-2-2h-1.35c-1.1,0-2,.9-2,2v21.2c0,2.96,2.4,5.35,5.35,5.35h0s0,0,.01,0h8.72s0,0,0,0c2.96,0,5.35-2.4,5.35-5.35v-13.41c0-1.1-.9-2-2-2Z"/>
      <path class="cls-1" d="m340.68,169.79h-1.35s-9.44,0-9.44,0h-1.35c-2.21,0-4,1.79-4,4v11.41h-8.41v-11.42c0-2.21-1.79-4-4-4h-1.35s-9.31,0-9.31,0h0s-1.35,0-1.35,0c-2.21,0-4,1.79-4,4v12.77c0,2.21,1.79,4,4,4h1.18s.24,0,.24,0h8.68s-.04.08-.06.12c-3.2,6.6-9.09,6.58-15.24,5.9v5.27c11.39,1.34,19.23-3.7,20.91-11.29h12.68s.03,0,.05,0h1.35s10.23,0,10.23,0h0s.56,0,.56,0c2.21,0,4-1.79,4-4v-12.77c0-2.21-1.79-4-4-4Zm-39.23,15.42v-10.05h9.31v10.05h-9.31Zm28.43-10.05h9.44v10.05h-9.44v-10.05Z"/>
    </g>
  </g>
</svg>